<svg id="Layer_1" data-name="Layer 1" xmlns="http://www.w3.org/2000/svg" viewBox="0 0 112 112"><defs><style>.cls-1{fill:#2f2f2f;}</style></defs><title>iconplaylistArtboard 1</title><path class="cls-1" d="M88.76,63.27c0,7.07.15,14.15,0,21.23-.26,10-9.59,16.07-18.92,12.39a7.73,7.73,0,0,1-5.2-7.24c-.25-3.74.24-7.23,3.94-9.1a33.59,33.59,0,0,1,7.79-2.92c5.81-1.3,8.27-4.4,8.1-10.6-.38-13.21,0-26.45-.21-39.67-.07-3.95,1.11-5.7,5.1-6.19A113.85,113.85,0,0,0,103,18.39c2.86-.71,3.49.29,3.68,3,.91,12.32,1,12.64-11.1,14.78-5.55,1-7.35,3.2-6.89,8.71C89.16,50.94,88.77,57.12,88.76,63.27Z"/><path class="cls-1" d="M38.62,57.71c10.21,0,20.42,0,30.64,0,1.67,0,4.06-.82,4,2.26s-2.41,2.24-4.08,2.24q-30.36.06-60.73,0c-1.63,0-4,.87-4-2.29s2.43-2.18,4-2.19C18.56,57.67,28.59,57.71,38.62,57.71Z"/><path class="cls-1" d="M38.89,44.55q-15.33,0-30.65,0c-1.78,0-3.91.53-3.73-2.55.16-2.86,2.26-1.92,3.67-1.92Q38.84,40,69.49,40c1.74,0,4-.63,3.8,2.47-.18,2.65-2.2,2-3.74,2C59.33,44.57,49.11,44.55,38.89,44.55Z"/><path class="cls-1" d="M39.25,26.79c-10.21,0-20.43,0-30.65,0-1.58,0-4,1-4.08-2.15s2.31-2.27,3.88-2.27q30.38-.09,60.75,0c1.55,0,4.11-1.15,4.12,2.06,0,3.48-2.72,2.33-4.48,2.35C59,26.84,49.1,26.79,39.25,26.79Z"/><path class="cls-1" d="M30.6,79.89c-7.63,0-15.26,0-22.89,0-1.74,0-3.37.16-3.22-2.48.14-2.34,1.7-2,3.15-2H54.52c1.79,0,3.46,0,3.32,2.53-.12,2.26-1.78,2-3.24,2Q42.6,79.91,30.6,79.89Z"/><path class="cls-1" d="M31.4,97.6c-7.81,0-15.63,0-23.44,0-1.53,0-3.49.61-3.46-2.2S6.37,93.11,8,93.1H54.31c1.66,0,3.51-.29,3.53,2.3s-2,2.17-3.55,2.18C46.66,97.62,39,97.6,31.4,97.6Z"/></svg>